<svg xmlns="http://www.w3.org/2000/svg" xmlns:svg="http://www.w3.org/2000/svg" xmlns:xlink="http://www.w3.org/1999/xlink" id="svg2" width="12cm" height="6cm" version="1.1"><desc id="desc4">TCPDF SVG EXAMPLE</desc><defs id="defs42"><radialGradient id="radialGradient2865" cx="85" cy="15" r="5.25" fx="85" fy="15" gradientUnits="userSpaceOnUse" xlink:href="#MyRGradient"/><radialGradient id="radialGradient2867" cx="60" cy="25" r="10.5" fx="60" fy="25" gradientUnits="userSpaceOnUse" xlink:href="#MyRGradient"/><radialGradient id="radialGradient2869" cx="17.822" cy="28.055" r="10.871" fx="17.822" fy="28.055" gradientTransform="matrix(3.6200333,0,0,1.8396889,173.9517,-9.005912)" gradientUnits="userSpaceOnUse" xlink:href="#MyRGradient"/><radialGradient id="radialGradient5087" cx="184.11" cy="476.552" r="74.151" fx="184.11" fy="476.552" gradientTransform="matrix(3.2520801,0,0,1.0907419,-234.6921,-1.613686)" gradientUnits="userSpaceOnUse" xlink:href="#linearGradient5075"/><linearGradient id="linearGradient5075"><stop id="stop5077" offset="0" stop-color="#ff0" stop-opacity="1"/><stop id="stop5079" offset="1" stop-color="red" stop-opacity="1"/></linearGradient><radialGradient id="radialGradient2846" cx="184.11" cy="476.552" r="74.151" fx="184.11" fy="476.552" gradientTransform="matrix(3.2520801,0,0,1.0907419,-234.6921,-1.613686)" gradientUnits="userSpaceOnUse" xlink:href="#linearGradient5075"/><linearGradient id="linearGradient2848"><stop id="stop2850" offset="0" stop-color="#ff0" stop-opacity="1"/><stop id="stop2852" offset="1" stop-color="red" stop-opacity="1"/></linearGradient><radialGradient id="radialGradient2854" cx="184.11" cy="476.552" r="74.151" fx="184.11" fy="476.552" gradientTransform="matrix(3.2520801,0,0,1.0907419,-234.6921,-1.613686)" gradientUnits="userSpaceOnUse" xlink:href="#linearGradient5075"/><linearGradient id="linearGradient2856"><stop id="stop2858" offset="0" stop-color="#ff0" stop-opacity="1"/><stop id="stop2860" offset="1" stop-color="red" stop-opacity="1"/></linearGradient><radialGradient id="radialGradient2862" cx="184.11" cy="476.552" r="74.151" fx="184.11" fy="476.552" gradientTransform="matrix(3.2520801,0,0,1.0907419,-234.6921,-1.613686)" gradientUnits="userSpaceOnUse" xlink:href="#linearGradient5075"/><linearGradient id="linearGradient2864"><stop id="stop2866" offset="0" stop-color="#ff0" stop-opacity="1"/><stop id="stop2868" offset="1" stop-color="red" stop-opacity="1"/></linearGradient><radialGradient id="radialGradient2885" cx="184.11" cy="476.552" r="74.151" fx="184.11" fy="476.552" gradientTransform="matrix(3.2520801,0,0,1.0907419,-234.6921,-1.613686)" gradientUnits="userSpaceOnUse" xlink:href="#linearGradient5075"/><radialGradient id="radialGradient5215" cx="60" cy="25" r="10.5" fx="60" fy="25" gradientUnits="userSpaceOnUse" xlink:href="#MyRGradient"/><radialGradient id="radialGradient5223" cx="184.11" cy="476.552" r="74.151" fx="184.11" fy="476.552" gradientTransform="matrix(3.2520801,0,0,1.0907419,-234.6921,-1.613686)" gradientUnits="userSpaceOnUse" xlink:href="#linearGradient5075"/><radialGradient id="radialGradient5245" cx="184.11" cy="476.552" r="74.151" fx="184.11" fy="476.552" gradientTransform="matrix(3.2520801,0,0,1.0907419,-234.6921,-1.613686)" gradientUnits="userSpaceOnUse" xlink:href="#linearGradient5075"/><radialGradient id="radialGradient5261" cx="184.11" cy="476.552" r="74.151" fx="184.11" fy="476.552" gradientTransform="matrix(3.2520801,0,0,1.0907419,-234.6921,-1.613686)" gradientUnits="userSpaceOnUse" xlink:href="#linearGradient5075"/><radialGradient id="radialGradient5264" cx="184.11" cy="476.552" r="74.151" fx="184.11" fy="476.552" gradientTransform="matrix(0.53063427,0,0,0.17133835,-41.5959,-53.579631)" gradientUnits="userSpaceOnUse" xlink:href="#linearGradient5075"/><radialGradient id="radialGradient5267" cx="184.11" cy="476.552" r="74.151" fx="184.11" fy="476.552" gradientTransform="matrix(0.53063427,0,0,0.17133835,-41.5959,-53.579631)" gradientUnits="userSpaceOnUse" xlink:href="#linearGradient5075"/><radialGradient id="radialGradient5270" cx="184.11" cy="476.552" r="74.151" fx="184.11" fy="476.552" gradientTransform="matrix(0.53063427,0,0,0.17133835,-41.5959,-53.579631)" gradientUnits="userSpaceOnUse" xlink:href="#linearGradient5075"/><radialGradient id="radialGradient5295" cx="85" cy="15" r="5.25" fx="85" fy="15" gradientUnits="userSpaceOnUse" xlink:href="#MyRGradient"/></defs><linearGradient id="MyLGradient" x1="2.493" x2="58.448" y1="8.123" y2="8.123" gradientTransform="matrix(2.1674701,3.2244804e-8,-1.0401032e-8,0.46846403,253.27742,-193.75856)" gradientUnits="userSpaceOnUse"><stop id="stop7" offset=".05" stop-color="#f60" stop-opacity="1"/><stop id="stop9" offset=".95" stop-color="#ff6" stop-opacity="1"/></linearGradient><radialGradient id="MyRGradient"><stop id="stop12" offset=".05" stop-color="#03f" stop-opacity="1"/><stop id="stop14" offset=".95" stop-color="#ff6" stop-opacity="1"/></radialGradient><rect id="rect16" width="120.081" height="25.367" x="259.281" y="-189.531" fill="url(#MyLGradient)" stroke="#00f" stroke-width="1.008" rx="3.602" ry="2.537" transform="matrix(0.71626866,0.69782463,-0.72008162,0.69388937,0,0)"/><ellipse id="ellipse20" cx="90" cy="30" fill="#0f0" stroke="green" stroke-width="1" rx="20" ry="10" transform="matrix(1.4285714,0,0,1.4285714,178.03709,88.814199)"/><path id="path30" fill="url(#radialGradient2869)" stroke="#00f" stroke-width="1.29" d="m 199.75816,42.607008 c 0,-25.80645 38.7097,-25.80645 38.7097,0 0,25.80645 38.70969,25.80645 38.70969,0 z"/><path id="path32" fill="none" stroke="green" stroke-width=".96" d="m 56.981711,101.40999 q 38.411107,-48.013879 76.822209,0 38.41109,48.01387 76.8222,0"/><path id="path34" fill="none" stroke="#888" stroke-width=".384" d="m 56.981711,101.40999 38.411107,-48.013879 38.411102,48.013879 38.41109,48.01387 38.41111,-48.01387"/><line id="line22" x1="158.17" x2="403.611" y1="196.274" y2="196.274" fill="red" stroke="red" stroke-opacity="1" stroke-width="2.727"/><text id="text38" x="158.153" y="182.618" fill="#00f" font-family="Helvetica" font-size="35.68" font-weight="bold">www.tcpdf.org</text><polygon id="polygon26" fill="url(#radialGradient5295)" stroke="red" stroke-width=".5" points="80 10 90 10 90 20 80 20 80 10" transform="matrix(4.7619048,0,0,4.7619048,-28.55484,-29.862646)"/><path id="path10" fill="red" stroke="#00f" stroke-width="1.061" d="M 172.22678,86.983374 H 140.4086 A 31.818187,31.818187 0 1 0 172.22678,55.16517 z"/><path id="path12" fill="#ff0" stroke="#00f" stroke-width="1.061" d="M 166.92376,81.680334 V 49.86215 a 31.818187,31.818187 0 0 0 -31.81821,31.818184 z"/><path id="path14" fill="none" stroke="red" stroke-width="1.378" d="m 191.9699,155.18875 13.78038,-6.89018 a 7.7034622,7.7034622 0 1 1 13.78037,-6.89018 l 13.78033,-6.89018 a 15.386158,7.6930793 60 0 1 13.78034,-6.89016 l 13.78034,-6.89017 a 23.073485,7.6911617 60 0 1 13.78037,-6.89019 l 13.78037,-6.89017 a 30.761945,7.6904861 60 1 1 13.78036,-6.89019 l 13.78034,-6.890167"/><circle id="circle18" cx="60" cy="25" r="10" fill="url(#radialGradient5215)" stroke="red" stroke-width="1" transform="matrix(2.3809524,0,0,2.3809524,-86.105483,113.11357)"/><path id="path28" fill="#ff0" stroke="#00f" stroke-width="1.22" d="m 32.361418,52.28906 48.780487,0 -24.39025,48.78049 z"/><image id="image36" width="80" height="26.667" x="16.752" y="111.325" xlink:href="tcpdf_logo.jpg"/><text id="text5343" x="13.399" y="41.581" fill="green" font-family="helvetica" font-size="40" font-stretch="normal" font-style="normal" font-variant="normal" font-weight="bold" xml:space="preserve">SVG</text></svg>